<mxfile host="app.diagrams.net" modified="2024-05-31T15:32:22.780Z" agent="Mozilla/5.0 (Windows NT 10.0; Win64; x64) AppleWebKit/537.36 (KHTML, like Gecko) Chrome/125.0.0.0 Safari/537.36 Edg/125.0.0.0" etag="2JR7xhAIYpdqHEaQCein" version="24.4.10" type="device" pages="3">
  <diagram name="ROL ORIENTADOR" id="mnS10pvguIpiT8Bo3ppW">
    <mxGraphModel dx="1303" dy="711" grid="1" gridSize="10" guides="1" tooltips="1" connect="1" arrows="1" fold="1" page="1" pageScale="1" pageWidth="827" pageHeight="1169" math="0" shadow="0">
      <root>
        <mxCell id="0" />
        <mxCell id="1" parent="0" />
        <mxCell id="vxaZMnd4SmWTgjOBvIXO-12" style="edgeStyle=orthogonalEdgeStyle;rounded=0;orthogonalLoop=1;jettySize=auto;html=1;exitX=0;exitY=0;exitDx=0;exitDy=0;entryX=0.5;entryY=1;entryDx=0;entryDy=0;" parent="1" source="vxaZMnd4SmWTgjOBvIXO-1" target="vxaZMnd4SmWTgjOBvIXO-3" edge="1">
          <mxGeometry relative="1" as="geometry">
            <Array as="points">
              <mxPoint x="340" y="230" />
              <mxPoint x="65" y="230" />
            </Array>
          </mxGeometry>
        </mxCell>
        <mxCell id="vxaZMnd4SmWTgjOBvIXO-13" style="edgeStyle=orthogonalEdgeStyle;rounded=0;orthogonalLoop=1;jettySize=auto;html=1;exitX=0;exitY=0.5;exitDx=0;exitDy=0;entryX=0.5;entryY=1;entryDx=0;entryDy=0;" parent="1" source="vxaZMnd4SmWTgjOBvIXO-1" target="vxaZMnd4SmWTgjOBvIXO-4" edge="1">
          <mxGeometry relative="1" as="geometry" />
        </mxCell>
        <mxCell id="vxaZMnd4SmWTgjOBvIXO-14" style="edgeStyle=orthogonalEdgeStyle;rounded=0;orthogonalLoop=1;jettySize=auto;html=1;exitX=0;exitY=0.25;exitDx=0;exitDy=0;entryX=0.5;entryY=1;entryDx=0;entryDy=0;" parent="1" source="vxaZMnd4SmWTgjOBvIXO-1" target="vxaZMnd4SmWTgjOBvIXO-5" edge="1">
          <mxGeometry relative="1" as="geometry" />
        </mxCell>
        <mxCell id="vxaZMnd4SmWTgjOBvIXO-15" style="edgeStyle=orthogonalEdgeStyle;rounded=0;orthogonalLoop=1;jettySize=auto;html=1;exitX=0.25;exitY=0;exitDx=0;exitDy=0;entryX=0.25;entryY=0;entryDx=0;entryDy=0;entryPerimeter=0;" parent="1" source="vxaZMnd4SmWTgjOBvIXO-1" target="vxaZMnd4SmWTgjOBvIXO-1" edge="1">
          <mxGeometry relative="1" as="geometry" />
        </mxCell>
        <mxCell id="vxaZMnd4SmWTgjOBvIXO-16" style="edgeStyle=orthogonalEdgeStyle;rounded=0;orthogonalLoop=1;jettySize=auto;html=1;exitX=0.75;exitY=0;exitDx=0;exitDy=0;entryX=0.75;entryY=0;entryDx=0;entryDy=0;" parent="1" source="vxaZMnd4SmWTgjOBvIXO-1" target="vxaZMnd4SmWTgjOBvIXO-1" edge="1">
          <mxGeometry relative="1" as="geometry" />
        </mxCell>
        <mxCell id="vxaZMnd4SmWTgjOBvIXO-17" style="edgeStyle=orthogonalEdgeStyle;rounded=0;orthogonalLoop=1;jettySize=auto;html=1;exitX=1;exitY=0.25;exitDx=0;exitDy=0;entryX=1;entryY=0.25;entryDx=0;entryDy=0;" parent="1" source="vxaZMnd4SmWTgjOBvIXO-1" target="vxaZMnd4SmWTgjOBvIXO-1" edge="1">
          <mxGeometry relative="1" as="geometry" />
        </mxCell>
        <mxCell id="vxaZMnd4SmWTgjOBvIXO-18" style="edgeStyle=orthogonalEdgeStyle;rounded=0;orthogonalLoop=1;jettySize=auto;html=1;exitX=1;exitY=0.75;exitDx=0;exitDy=0;entryX=0.5;entryY=1;entryDx=0;entryDy=0;" parent="1" source="vxaZMnd4SmWTgjOBvIXO-1" target="vxaZMnd4SmWTgjOBvIXO-11" edge="1">
          <mxGeometry relative="1" as="geometry" />
        </mxCell>
        <mxCell id="vxaZMnd4SmWTgjOBvIXO-20" style="edgeStyle=orthogonalEdgeStyle;rounded=0;orthogonalLoop=1;jettySize=auto;html=1;exitX=1;exitY=0.25;exitDx=0;exitDy=0;" parent="1" source="vxaZMnd4SmWTgjOBvIXO-1" edge="1">
          <mxGeometry relative="1" as="geometry">
            <mxPoint x="460" y="200" as="targetPoint" />
          </mxGeometry>
        </mxCell>
        <mxCell id="vxaZMnd4SmWTgjOBvIXO-22" style="edgeStyle=orthogonalEdgeStyle;rounded=0;orthogonalLoop=1;jettySize=auto;html=1;exitX=1;exitY=0.25;exitDx=0;exitDy=0;entryX=0.5;entryY=1;entryDx=0;entryDy=0;" parent="1" source="vxaZMnd4SmWTgjOBvIXO-1" target="vxaZMnd4SmWTgjOBvIXO-9" edge="1">
          <mxGeometry relative="1" as="geometry" />
        </mxCell>
        <mxCell id="vxaZMnd4SmWTgjOBvIXO-23" style="edgeStyle=orthogonalEdgeStyle;rounded=0;orthogonalLoop=1;jettySize=auto;html=1;exitX=1;exitY=0.5;exitDx=0;exitDy=0;entryX=0.5;entryY=1;entryDx=0;entryDy=0;" parent="1" source="vxaZMnd4SmWTgjOBvIXO-1" target="vxaZMnd4SmWTgjOBvIXO-10" edge="1">
          <mxGeometry relative="1" as="geometry" />
        </mxCell>
        <mxCell id="vxaZMnd4SmWTgjOBvIXO-1" value="" style="rounded=0;whiteSpace=wrap;html=1;fillColor=#e1d5e7;strokeColor=#9673a6;" parent="1" vertex="1">
          <mxGeometry x="340" y="185" width="120" height="60" as="geometry" />
        </mxCell>
        <mxCell id="va68B0IyVfpB99YjBfwU-1" style="edgeStyle=orthogonalEdgeStyle;rounded=0;orthogonalLoop=1;jettySize=auto;html=1;exitX=0.5;exitY=1;exitDx=0;exitDy=0;" edge="1" parent="1" source="vxaZMnd4SmWTgjOBvIXO-2" target="vxaZMnd4SmWTgjOBvIXO-19">
          <mxGeometry relative="1" as="geometry" />
        </mxCell>
        <mxCell id="vxaZMnd4SmWTgjOBvIXO-2" value="ORIENTADOR" style="text;html=1;align=center;verticalAlign=middle;whiteSpace=wrap;rounded=0;" parent="1" vertex="1">
          <mxGeometry x="370" y="200" width="60" height="30" as="geometry" />
        </mxCell>
        <mxCell id="vxaZMnd4SmWTgjOBvIXO-3" value="" style="ellipse;whiteSpace=wrap;html=1;fillColor=#d5e8d4;strokeColor=#82b366;" parent="1" vertex="1">
          <mxGeometry x="20" y="40" width="90" height="80" as="geometry" />
        </mxCell>
        <mxCell id="vxaZMnd4SmWTgjOBvIXO-4" value="" style="ellipse;whiteSpace=wrap;html=1;fillColor=#d5e8d4;strokeColor=#82b366;" parent="1" vertex="1">
          <mxGeometry x="120" y="40" width="100" height="80" as="geometry" />
        </mxCell>
        <mxCell id="vxaZMnd4SmWTgjOBvIXO-5" value="Apellido" style="ellipse;whiteSpace=wrap;html=1;fillColor=#d5e8d4;strokeColor=#82b366;" parent="1" vertex="1">
          <mxGeometry x="230" y="40" width="100" height="80" as="geometry" />
        </mxCell>
        <mxCell id="vxaZMnd4SmWTgjOBvIXO-6" value="Correo" style="ellipse;whiteSpace=wrap;html=1;fillColor=#d5e8d4;strokeColor=#82b366;" parent="1" vertex="1">
          <mxGeometry x="340" y="40" width="100" height="80" as="geometry" />
        </mxCell>
        <mxCell id="vxaZMnd4SmWTgjOBvIXO-7" value="ID" style="text;html=1;align=center;verticalAlign=middle;whiteSpace=wrap;rounded=0;" parent="1" vertex="1">
          <mxGeometry x="40" y="65" width="60" height="30" as="geometry" />
        </mxCell>
        <mxCell id="vxaZMnd4SmWTgjOBvIXO-8" value="Nombre" style="text;html=1;align=center;verticalAlign=middle;whiteSpace=wrap;rounded=0;" parent="1" vertex="1">
          <mxGeometry x="140" y="65" width="60" height="30" as="geometry" />
        </mxCell>
        <mxCell id="vxaZMnd4SmWTgjOBvIXO-9" value="Contraseña" style="ellipse;whiteSpace=wrap;html=1;fillColor=#d5e8d4;strokeColor=#82b366;" parent="1" vertex="1">
          <mxGeometry x="450" y="40" width="100" height="80" as="geometry" />
        </mxCell>
        <mxCell id="vxaZMnd4SmWTgjOBvIXO-10" value="NI" style="ellipse;whiteSpace=wrap;html=1;fillColor=#d5e8d4;strokeColor=#82b366;" parent="1" vertex="1">
          <mxGeometry x="560" y="40" width="100" height="80" as="geometry" />
        </mxCell>
        <mxCell id="vxaZMnd4SmWTgjOBvIXO-11" value="Teléfono" style="ellipse;whiteSpace=wrap;html=1;fillColor=#d5e8d4;strokeColor=#82b366;" parent="1" vertex="1">
          <mxGeometry x="670" y="40" width="110" height="80" as="geometry" />
        </mxCell>
        <mxCell id="JZSFRKhkGCQGmGGt3ECA-1" style="edgeStyle=orthogonalEdgeStyle;rounded=0;orthogonalLoop=1;jettySize=auto;html=1;exitX=1;exitY=0.5;exitDx=0;exitDy=0;entryX=0.75;entryY=0;entryDx=0;entryDy=0;" edge="1" parent="1" source="vxaZMnd4SmWTgjOBvIXO-19" target="VvpsU_-pl0jcXzFl8CNd-5">
          <mxGeometry relative="1" as="geometry" />
        </mxCell>
        <mxCell id="JZSFRKhkGCQGmGGt3ECA-2" style="edgeStyle=orthogonalEdgeStyle;rounded=0;orthogonalLoop=1;jettySize=auto;html=1;exitX=0;exitY=0.5;exitDx=0;exitDy=0;entryX=0.25;entryY=0;entryDx=0;entryDy=0;" edge="1" parent="1" source="vxaZMnd4SmWTgjOBvIXO-19" target="VvpsU_-pl0jcXzFl8CNd-1">
          <mxGeometry relative="1" as="geometry" />
        </mxCell>
        <mxCell id="JZSFRKhkGCQGmGGt3ECA-3" style="edgeStyle=orthogonalEdgeStyle;rounded=0;orthogonalLoop=1;jettySize=auto;html=1;exitX=0;exitY=1;exitDx=0;exitDy=0;" edge="1" parent="1" source="vxaZMnd4SmWTgjOBvIXO-19" target="VvpsU_-pl0jcXzFl8CNd-2">
          <mxGeometry relative="1" as="geometry" />
        </mxCell>
        <mxCell id="JZSFRKhkGCQGmGGt3ECA-4" style="edgeStyle=orthogonalEdgeStyle;rounded=0;orthogonalLoop=1;jettySize=auto;html=1;exitX=1;exitY=1;exitDx=0;exitDy=0;" edge="1" parent="1" source="vxaZMnd4SmWTgjOBvIXO-19" target="VvpsU_-pl0jcXzFl8CNd-4">
          <mxGeometry relative="1" as="geometry" />
        </mxCell>
        <mxCell id="JZSFRKhkGCQGmGGt3ECA-5" style="edgeStyle=orthogonalEdgeStyle;rounded=0;orthogonalLoop=1;jettySize=auto;html=1;exitX=0.5;exitY=1;exitDx=0;exitDy=0;" edge="1" parent="1" source="vxaZMnd4SmWTgjOBvIXO-19" target="VvpsU_-pl0jcXzFl8CNd-3">
          <mxGeometry relative="1" as="geometry" />
        </mxCell>
        <mxCell id="vxaZMnd4SmWTgjOBvIXO-19" value="HACE" style="rhombus;whiteSpace=wrap;html=1;fillColor=#f8cecc;strokeColor=#b85450;" parent="1" vertex="1">
          <mxGeometry x="360" y="350" width="80" height="80" as="geometry" />
        </mxCell>
        <mxCell id="vxaZMnd4SmWTgjOBvIXO-21" style="edgeStyle=orthogonalEdgeStyle;rounded=0;orthogonalLoop=1;jettySize=auto;html=1;exitX=0.5;exitY=0;exitDx=0;exitDy=0;" parent="1" source="vxaZMnd4SmWTgjOBvIXO-1" target="vxaZMnd4SmWTgjOBvIXO-6" edge="1">
          <mxGeometry relative="1" as="geometry" />
        </mxCell>
        <mxCell id="VvpsU_-pl0jcXzFl8CNd-1" value="Agregar campañas&lt;div&gt;&lt;br/&gt;&lt;/div&gt;" style="rounded=0;whiteSpace=wrap;html=1;fillColor=#dae8fc;strokeColor=#6c8ebf;" vertex="1" parent="1">
          <mxGeometry x="10" y="510" width="120" height="60" as="geometry" />
        </mxCell>
        <mxCell id="VvpsU_-pl0jcXzFl8CNd-2" value="Eliminar campaña" style="rounded=0;whiteSpace=wrap;html=1;fillColor=#dae8fc;strokeColor=#6c8ebf;" vertex="1" parent="1">
          <mxGeometry x="160" y="510" width="120" height="60" as="geometry" />
        </mxCell>
        <mxCell id="VvpsU_-pl0jcXzFl8CNd-3" value="Observar Postulados" style="rounded=0;whiteSpace=wrap;html=1;fillColor=#dae8fc;strokeColor=#6c8ebf;" vertex="1" parent="1">
          <mxGeometry x="343" y="540" width="114" height="60" as="geometry" />
        </mxCell>
        <mxCell id="VvpsU_-pl0jcXzFl8CNd-4" value="Aceptar solicitud de postulados" style="rounded=0;whiteSpace=wrap;html=1;fillColor=#dae8fc;strokeColor=#6c8ebf;" vertex="1" parent="1">
          <mxGeometry x="510" y="510" width="120" height="60" as="geometry" />
        </mxCell>
        <mxCell id="VvpsU_-pl0jcXzFl8CNd-5" value="Observar listado de asistencia" style="rounded=0;whiteSpace=wrap;html=1;fillColor=#dae8fc;strokeColor=#6c8ebf;" vertex="1" parent="1">
          <mxGeometry x="665" y="510" width="120" height="60" as="geometry" />
        </mxCell>
      </root>
    </mxGraphModel>
  </diagram>
  <diagram id="71een7yitc14XBCrymD7" name="ROL ESTUDIANTE">
    <mxGraphModel dx="1158" dy="632" grid="1" gridSize="10" guides="1" tooltips="1" connect="1" arrows="1" fold="1" page="1" pageScale="1" pageWidth="827" pageHeight="1169" math="0" shadow="0">
      <root>
        <mxCell id="0" />
        <mxCell id="1" parent="0" />
        <mxCell id="52P8NnytwPko_fNTGjIp-8" style="edgeStyle=orthogonalEdgeStyle;rounded=0;orthogonalLoop=1;jettySize=auto;html=1;exitX=0;exitY=0.75;exitDx=0;exitDy=0;entryX=0.5;entryY=1;entryDx=0;entryDy=0;" parent="1" source="bbh77vW7CYd_4KdEH8EI-1" target="52P8NnytwPko_fNTGjIp-2" edge="1">
          <mxGeometry relative="1" as="geometry" />
        </mxCell>
        <mxCell id="52P8NnytwPko_fNTGjIp-9" style="edgeStyle=orthogonalEdgeStyle;rounded=0;orthogonalLoop=1;jettySize=auto;html=1;exitX=0;exitY=0.5;exitDx=0;exitDy=0;entryX=0.5;entryY=1;entryDx=0;entryDy=0;" parent="1" source="bbh77vW7CYd_4KdEH8EI-1" target="52P8NnytwPko_fNTGjIp-3" edge="1">
          <mxGeometry relative="1" as="geometry" />
        </mxCell>
        <mxCell id="52P8NnytwPko_fNTGjIp-10" style="edgeStyle=orthogonalEdgeStyle;rounded=0;orthogonalLoop=1;jettySize=auto;html=1;exitX=0;exitY=0.25;exitDx=0;exitDy=0;entryX=0;entryY=0.25;entryDx=0;entryDy=0;" parent="1" source="bbh77vW7CYd_4KdEH8EI-1" target="bbh77vW7CYd_4KdEH8EI-1" edge="1">
          <mxGeometry relative="1" as="geometry" />
        </mxCell>
        <mxCell id="52P8NnytwPko_fNTGjIp-20" style="edgeStyle=orthogonalEdgeStyle;rounded=0;orthogonalLoop=1;jettySize=auto;html=1;exitX=1;exitY=0.75;exitDx=0;exitDy=0;entryX=0.5;entryY=1;entryDx=0;entryDy=0;" parent="1" source="bbh77vW7CYd_4KdEH8EI-1" target="52P8NnytwPko_fNTGjIp-7" edge="1">
          <mxGeometry relative="1" as="geometry" />
        </mxCell>
        <mxCell id="-IJ5cMEktEthxyiZdSqE-7" style="edgeStyle=orthogonalEdgeStyle;rounded=0;orthogonalLoop=1;jettySize=auto;html=1;exitX=0.5;exitY=1;exitDx=0;exitDy=0;" edge="1" parent="1" source="bbh77vW7CYd_4KdEH8EI-1" target="0CT2I8Hs-V0rIv5R5Ita-6">
          <mxGeometry relative="1" as="geometry" />
        </mxCell>
        <mxCell id="bbh77vW7CYd_4KdEH8EI-1" value="Estudiante" style="rounded=0;whiteSpace=wrap;html=1;fillColor=#e1d5e7;strokeColor=#9673a6;" parent="1" vertex="1">
          <mxGeometry x="370" y="230" width="120" height="60" as="geometry" />
        </mxCell>
        <mxCell id="52P8NnytwPko_fNTGjIp-1" style="edgeStyle=orthogonalEdgeStyle;rounded=0;orthogonalLoop=1;jettySize=auto;html=1;exitX=0;exitY=0.75;exitDx=0;exitDy=0;entryX=0;entryY=0.75;entryDx=0;entryDy=0;fillColor=#e1d5e7;strokeColor=#9673a6;" parent="1" source="bbh77vW7CYd_4KdEH8EI-1" target="bbh77vW7CYd_4KdEH8EI-1" edge="1">
          <mxGeometry relative="1" as="geometry" />
        </mxCell>
        <mxCell id="52P8NnytwPko_fNTGjIp-2" value="ID" style="ellipse;whiteSpace=wrap;html=1;fillColor=#d5e8d4;strokeColor=#82b366;" parent="1" vertex="1">
          <mxGeometry x="20" y="50" width="120" height="80" as="geometry" />
        </mxCell>
        <mxCell id="52P8NnytwPko_fNTGjIp-3" value="Nombre" style="ellipse;whiteSpace=wrap;html=1;fillColor=#d5e8d4;strokeColor=#82b366;" parent="1" vertex="1">
          <mxGeometry x="160" y="50" width="120" height="80" as="geometry" />
        </mxCell>
        <mxCell id="52P8NnytwPko_fNTGjIp-4" value="Apellido" style="ellipse;whiteSpace=wrap;html=1;fillColor=#d5e8d4;strokeColor=#82b366;" parent="1" vertex="1">
          <mxGeometry x="300" y="50" width="120" height="80" as="geometry" />
        </mxCell>
        <mxCell id="52P8NnytwPko_fNTGjIp-5" value="NI" style="ellipse;whiteSpace=wrap;html=1;fillColor=#d5e8d4;strokeColor=#82b366;" parent="1" vertex="1">
          <mxGeometry x="440" y="50" width="120" height="80" as="geometry" />
        </mxCell>
        <mxCell id="52P8NnytwPko_fNTGjIp-6" value="Correo" style="ellipse;whiteSpace=wrap;html=1;fillColor=#d5e8d4;strokeColor=#82b366;" parent="1" vertex="1">
          <mxGeometry x="570" y="50" width="120" height="80" as="geometry" />
        </mxCell>
        <mxCell id="52P8NnytwPko_fNTGjIp-7" value="Telefono" style="ellipse;whiteSpace=wrap;html=1;fillColor=#d5e8d4;strokeColor=#82b366;" parent="1" vertex="1">
          <mxGeometry x="700" y="50" width="120" height="80" as="geometry" />
        </mxCell>
        <mxCell id="52P8NnytwPko_fNTGjIp-17" style="edgeStyle=orthogonalEdgeStyle;rounded=0;orthogonalLoop=1;jettySize=auto;html=1;exitX=0;exitY=0.25;exitDx=0;exitDy=0;entryX=0.375;entryY=0.963;entryDx=0;entryDy=0;entryPerimeter=0;" parent="1" source="bbh77vW7CYd_4KdEH8EI-1" target="52P8NnytwPko_fNTGjIp-4" edge="1">
          <mxGeometry relative="1" as="geometry" />
        </mxCell>
        <mxCell id="52P8NnytwPko_fNTGjIp-18" style="edgeStyle=orthogonalEdgeStyle;rounded=0;orthogonalLoop=1;jettySize=auto;html=1;exitX=1;exitY=0.25;exitDx=0;exitDy=0;entryX=0.65;entryY=1.038;entryDx=0;entryDy=0;entryPerimeter=0;" parent="1" source="bbh77vW7CYd_4KdEH8EI-1" target="52P8NnytwPko_fNTGjIp-5" edge="1">
          <mxGeometry relative="1" as="geometry" />
        </mxCell>
        <mxCell id="52P8NnytwPko_fNTGjIp-19" style="edgeStyle=orthogonalEdgeStyle;rounded=0;orthogonalLoop=1;jettySize=auto;html=1;exitX=1;exitY=0.5;exitDx=0;exitDy=0;entryX=0.583;entryY=1;entryDx=0;entryDy=0;entryPerimeter=0;" parent="1" source="bbh77vW7CYd_4KdEH8EI-1" target="52P8NnytwPko_fNTGjIp-6" edge="1">
          <mxGeometry relative="1" as="geometry" />
        </mxCell>
        <mxCell id="0CT2I8Hs-V0rIv5R5Ita-1" value="Registrar asistencia" style="rounded=0;whiteSpace=wrap;html=1;fillColor=#dae8fc;strokeColor=#6c8ebf;" vertex="1" parent="1">
          <mxGeometry x="30" y="440" width="120" height="60" as="geometry" />
        </mxCell>
        <mxCell id="0CT2I8Hs-V0rIv5R5Ita-2" value="Observar asistencia" style="rounded=0;whiteSpace=wrap;html=1;fillColor=#dae8fc;strokeColor=#6c8ebf;" vertex="1" parent="1">
          <mxGeometry x="190" y="440" width="120" height="60" as="geometry" />
        </mxCell>
        <mxCell id="0CT2I8Hs-V0rIv5R5Ita-3" value="Observar campañas" style="rounded=0;whiteSpace=wrap;html=1;fillColor=#dae8fc;strokeColor=#6c8ebf;" vertex="1" parent="1">
          <mxGeometry x="370" y="440" width="120" height="60" as="geometry" />
        </mxCell>
        <mxCell id="0CT2I8Hs-V0rIv5R5Ita-4" value="Postularse a campañas" style="rounded=0;whiteSpace=wrap;html=1;fillColor=#dae8fc;strokeColor=#6c8ebf;" vertex="1" parent="1">
          <mxGeometry x="540" y="440" width="120" height="60" as="geometry" />
        </mxCell>
        <mxCell id="0CT2I8Hs-V0rIv5R5Ita-5" value="Generar certificado" style="rounded=0;whiteSpace=wrap;html=1;fillColor=#dae8fc;strokeColor=#6c8ebf;" vertex="1" parent="1">
          <mxGeometry x="707" y="440" width="120" height="60" as="geometry" />
        </mxCell>
        <mxCell id="-IJ5cMEktEthxyiZdSqE-9" style="edgeStyle=orthogonalEdgeStyle;rounded=0;orthogonalLoop=1;jettySize=auto;html=1;exitX=0;exitY=1;exitDx=0;exitDy=0;entryX=0.5;entryY=0;entryDx=0;entryDy=0;" edge="1" parent="1" source="0CT2I8Hs-V0rIv5R5Ita-6" target="0CT2I8Hs-V0rIv5R5Ita-2">
          <mxGeometry relative="1" as="geometry" />
        </mxCell>
        <mxCell id="-IJ5cMEktEthxyiZdSqE-11" style="edgeStyle=orthogonalEdgeStyle;rounded=0;orthogonalLoop=1;jettySize=auto;html=1;exitX=0;exitY=0.5;exitDx=0;exitDy=0;entryX=0.25;entryY=0;entryDx=0;entryDy=0;" edge="1" parent="1" source="0CT2I8Hs-V0rIv5R5Ita-6" target="0CT2I8Hs-V0rIv5R5Ita-1">
          <mxGeometry relative="1" as="geometry" />
        </mxCell>
        <mxCell id="-IJ5cMEktEthxyiZdSqE-12" style="edgeStyle=orthogonalEdgeStyle;rounded=0;orthogonalLoop=1;jettySize=auto;html=1;exitX=1;exitY=0.5;exitDx=0;exitDy=0;entryX=0.75;entryY=0;entryDx=0;entryDy=0;" edge="1" parent="1" source="0CT2I8Hs-V0rIv5R5Ita-6" target="0CT2I8Hs-V0rIv5R5Ita-5">
          <mxGeometry relative="1" as="geometry" />
        </mxCell>
        <mxCell id="-IJ5cMEktEthxyiZdSqE-13" style="edgeStyle=orthogonalEdgeStyle;rounded=0;orthogonalLoop=1;jettySize=auto;html=1;exitX=1;exitY=1;exitDx=0;exitDy=0;entryX=0.5;entryY=0;entryDx=0;entryDy=0;" edge="1" parent="1" source="0CT2I8Hs-V0rIv5R5Ita-6" target="0CT2I8Hs-V0rIv5R5Ita-4">
          <mxGeometry relative="1" as="geometry" />
        </mxCell>
        <mxCell id="-IJ5cMEktEthxyiZdSqE-14" style="edgeStyle=orthogonalEdgeStyle;rounded=0;orthogonalLoop=1;jettySize=auto;html=1;exitX=0.5;exitY=1;exitDx=0;exitDy=0;entryX=0.5;entryY=0;entryDx=0;entryDy=0;" edge="1" parent="1" source="0CT2I8Hs-V0rIv5R5Ita-6" target="0CT2I8Hs-V0rIv5R5Ita-3">
          <mxGeometry relative="1" as="geometry" />
        </mxCell>
        <mxCell id="0CT2I8Hs-V0rIv5R5Ita-6" value="Hace" style="rhombus;whiteSpace=wrap;html=1;fillColor=#f8cecc;strokeColor=#b85450;" vertex="1" parent="1">
          <mxGeometry x="390" y="330" width="80" height="80" as="geometry" />
        </mxCell>
      </root>
    </mxGraphModel>
  </diagram>
  <diagram id="aIutdz3qx9N19qnBnqwK" name="ROL USUARIO">
    <mxGraphModel dx="1042" dy="569" grid="1" gridSize="10" guides="1" tooltips="1" connect="1" arrows="1" fold="1" page="1" pageScale="1" pageWidth="827" pageHeight="1169" math="0" shadow="0">
      <root>
        <mxCell id="0" />
        <mxCell id="1" parent="0" />
        <mxCell id="o_DC0SbukmPrmqhVdRa1-11" style="edgeStyle=orthogonalEdgeStyle;rounded=0;orthogonalLoop=1;jettySize=auto;html=1;exitX=0;exitY=0.5;exitDx=0;exitDy=0;" parent="1" source="o_DC0SbukmPrmqhVdRa1-1" target="o_DC0SbukmPrmqhVdRa1-3" edge="1">
          <mxGeometry relative="1" as="geometry" />
        </mxCell>
        <mxCell id="o_DC0SbukmPrmqhVdRa1-12" style="edgeStyle=orthogonalEdgeStyle;rounded=0;orthogonalLoop=1;jettySize=auto;html=1;exitX=1;exitY=0.5;exitDx=0;exitDy=0;" parent="1" source="o_DC0SbukmPrmqhVdRa1-1" target="o_DC0SbukmPrmqhVdRa1-6" edge="1">
          <mxGeometry relative="1" as="geometry" />
        </mxCell>
        <mxCell id="o_DC0SbukmPrmqhVdRa1-13" style="edgeStyle=orthogonalEdgeStyle;rounded=0;orthogonalLoop=1;jettySize=auto;html=1;exitX=0;exitY=0.25;exitDx=0;exitDy=0;" parent="1" source="o_DC0SbukmPrmqhVdRa1-1" target="o_DC0SbukmPrmqhVdRa1-4" edge="1">
          <mxGeometry relative="1" as="geometry" />
        </mxCell>
        <mxCell id="FllhUIJtSu0ek1S4AsCn-7" style="edgeStyle=orthogonalEdgeStyle;rounded=0;orthogonalLoop=1;jettySize=auto;html=1;exitX=0.5;exitY=1;exitDx=0;exitDy=0;" edge="1" parent="1" source="o_DC0SbukmPrmqhVdRa1-1" target="FllhUIJtSu0ek1S4AsCn-1">
          <mxGeometry relative="1" as="geometry" />
        </mxCell>
        <mxCell id="o_DC0SbukmPrmqhVdRa1-1" value="usuario" style="rounded=0;whiteSpace=wrap;html=1;fillColor=#e1d5e7;strokeColor=#9673a6;" parent="1" vertex="1">
          <mxGeometry x="390" y="290" width="120" height="60" as="geometry" />
        </mxCell>
        <mxCell id="o_DC0SbukmPrmqhVdRa1-2" value="ID" style="ellipse;whiteSpace=wrap;html=1;fillColor=#d5e8d4;strokeColor=#82b366;" parent="1" vertex="1">
          <mxGeometry x="30" y="60" width="120" height="80" as="geometry" />
        </mxCell>
        <mxCell id="o_DC0SbukmPrmqhVdRa1-3" value="Nombre" style="ellipse;whiteSpace=wrap;html=1;fillColor=#d5e8d4;strokeColor=#82b366;" parent="1" vertex="1">
          <mxGeometry x="170" y="60" width="120" height="80" as="geometry" />
        </mxCell>
        <mxCell id="o_DC0SbukmPrmqhVdRa1-4" value="Apellido" style="ellipse;whiteSpace=wrap;html=1;fillColor=#d5e8d4;strokeColor=#82b366;" parent="1" vertex="1">
          <mxGeometry x="310" y="60" width="120" height="80" as="geometry" />
        </mxCell>
        <mxCell id="o_DC0SbukmPrmqhVdRa1-5" value="Correo" style="ellipse;whiteSpace=wrap;html=1;fillColor=#d5e8d4;strokeColor=#82b366;" parent="1" vertex="1">
          <mxGeometry x="460" y="60" width="120" height="80" as="geometry" />
        </mxCell>
        <mxCell id="o_DC0SbukmPrmqhVdRa1-6" value="Teléfono" style="ellipse;whiteSpace=wrap;html=1;fillColor=#d5e8d4;strokeColor=#82b366;" parent="1" vertex="1">
          <mxGeometry x="590" y="60" width="120" height="80" as="geometry" />
        </mxCell>
        <mxCell id="o_DC0SbukmPrmqhVdRa1-7" value="Contraseña" style="ellipse;whiteSpace=wrap;html=1;fillColor=#d5e8d4;strokeColor=#82b366;" parent="1" vertex="1">
          <mxGeometry x="730" y="60" width="120" height="80" as="geometry" />
        </mxCell>
        <mxCell id="o_DC0SbukmPrmqhVdRa1-9" style="edgeStyle=orthogonalEdgeStyle;rounded=0;orthogonalLoop=1;jettySize=auto;html=1;exitX=0;exitY=0.75;exitDx=0;exitDy=0;entryX=0.442;entryY=1.013;entryDx=0;entryDy=0;entryPerimeter=0;" parent="1" source="o_DC0SbukmPrmqhVdRa1-1" target="o_DC0SbukmPrmqhVdRa1-2" edge="1">
          <mxGeometry relative="1" as="geometry" />
        </mxCell>
        <mxCell id="o_DC0SbukmPrmqhVdRa1-10" style="edgeStyle=orthogonalEdgeStyle;rounded=0;orthogonalLoop=1;jettySize=auto;html=1;exitX=1;exitY=0.75;exitDx=0;exitDy=0;entryX=0.558;entryY=1.025;entryDx=0;entryDy=0;entryPerimeter=0;" parent="1" source="o_DC0SbukmPrmqhVdRa1-1" target="o_DC0SbukmPrmqhVdRa1-7" edge="1">
          <mxGeometry relative="1" as="geometry" />
        </mxCell>
        <mxCell id="o_DC0SbukmPrmqhVdRa1-17" style="edgeStyle=orthogonalEdgeStyle;rounded=0;orthogonalLoop=1;jettySize=auto;html=1;exitX=1;exitY=0.25;exitDx=0;exitDy=0;entryX=0.625;entryY=1.025;entryDx=0;entryDy=0;entryPerimeter=0;" parent="1" source="o_DC0SbukmPrmqhVdRa1-1" target="o_DC0SbukmPrmqhVdRa1-5" edge="1">
          <mxGeometry relative="1" as="geometry" />
        </mxCell>
        <mxCell id="FllhUIJtSu0ek1S4AsCn-5" style="edgeStyle=orthogonalEdgeStyle;rounded=0;orthogonalLoop=1;jettySize=auto;html=1;exitX=0;exitY=0.5;exitDx=0;exitDy=0;entryX=0.5;entryY=0;entryDx=0;entryDy=0;" edge="1" parent="1" source="FllhUIJtSu0ek1S4AsCn-1" target="FllhUIJtSu0ek1S4AsCn-2">
          <mxGeometry relative="1" as="geometry" />
        </mxCell>
        <mxCell id="FllhUIJtSu0ek1S4AsCn-6" style="edgeStyle=orthogonalEdgeStyle;rounded=0;orthogonalLoop=1;jettySize=auto;html=1;exitX=1;exitY=0.5;exitDx=0;exitDy=0;entryX=0.5;entryY=0;entryDx=0;entryDy=0;" edge="1" parent="1" source="FllhUIJtSu0ek1S4AsCn-1" target="FllhUIJtSu0ek1S4AsCn-3">
          <mxGeometry relative="1" as="geometry" />
        </mxCell>
        <mxCell id="FllhUIJtSu0ek1S4AsCn-1" value="Hace" style="rhombus;whiteSpace=wrap;html=1;fillColor=#f8cecc;strokeColor=#b85450;" vertex="1" parent="1">
          <mxGeometry x="410" y="400" width="80" height="80" as="geometry" />
        </mxCell>
        <mxCell id="FllhUIJtSu0ek1S4AsCn-2" value="Observar asistencia" style="rounded=0;whiteSpace=wrap;html=1;fillColor=#dae8fc;strokeColor=#6c8ebf;" vertex="1" parent="1">
          <mxGeometry x="270" y="525" width="120" height="60" as="geometry" />
        </mxCell>
        <mxCell id="FllhUIJtSu0ek1S4AsCn-3" value="Observar campañas" style="rounded=0;whiteSpace=wrap;html=1;fillColor=#dae8fc;strokeColor=#6c8ebf;" vertex="1" parent="1">
          <mxGeometry x="510" y="525" width="120" height="60" as="geometry" />
        </mxCell>
      </root>
    </mxGraphModel>
  </diagram>
</mxfile>
